<svg id="Layer_1" data-name="Layer 1" xmlns="http://www.w3.org/2000/svg" viewBox="0 0 1423.81 929.11"><defs><style>.cls-1,.cls-3{fill:none;stroke-miterlimit:1;}.cls-1{stroke:#fff;stroke-width:4px;}.cls-2,.cls-5{fill:#fff;}.cls-3{stroke:#000;stroke-width:10px;}.cls-4{fill:#a52e20;}.cls-5,.cls-7{font-size:178.33px;letter-spacing:0.07em;}.cls-5{font-family:LeckerliOne-Regular, Leckerli One;}.cls-6{font-size:140.11px;letter-spacing:0.07em;}.cls-8{font-size:229.27px;letter-spacing:0.07em;}.cls-9{letter-spacing:0.06em;}.cls-10{letter-spacing:0.07em;}</style></defs><title>Red-Pepper-Pizza-Logo-Final</title><path class="cls-1" d="M68.18,580.43" transform="translate(20.98 -244.43)"/><path class="cls-2" d="M157.53,580.43c14.67-.83,29.34-1.26,44-1.55,7.33-.18,14.67-.23,22-.33l22-.11,22,.11c7.33.11,14.67.15,22,.33,14.67.29,29.34.73,44,1.56-14.67.83-29.34,1.27-44,1.56-7.33.19-14.67.22-22,.33l-22,.11-22-.11c-7.33-.11-14.67-.15-22-.33C186.87,581.69,172.2,581.26,157.53,580.43Z" transform="translate(20.98 -244.43)"/><polygon class="cls-3" points="1321.19 801.97 730.74 924.22 140.3 801.97 42.5 464.57 140.3 102.73 730.74 4.93 1321.19 102.73 1418.98 464.57 1321.19 801.97"/><polygon class="cls-4" points="1306.27 789.41 730.74 907.1 155.22 789.41 61.07 464.57 155.22 116.2 730.74 22.05 1306.27 116.2 1400.42 464.57 1306.27 789.41"/><path class="cls-1" d="M61.75,709" transform="translate(20.98 -244.43)"/><path class="cls-2" d="M1266.37,991.44c-46.16,10.75-92.41,21.07-138.65,31.41l-69.41,15.31-69.45,15.12-34.73,7.54-34.75,7.44-69.5,14.85-139.1,29.29h-2l-138.49-29.28L501,1068.27l-34.6-7.44-34.58-7.54-69.14-15.12-69.1-15.31c-46-10.34-92.09-20.66-138-31.42,46.41,8.59,92.72,17.62,139,26.62l69.44,13.71,69.4,13.9,34.7,7,34.67,7.07,69.34,14.16,138.6,28.76h-2l139.21-28.75,69.65-14.17,34.83-7.07,34.85-7,69.7-13.9,69.74-13.71C1173.24,1009.06,1219.76,1000,1266.37,991.44Z" transform="translate(20.98 -244.43)"/><path class="cls-2" d="M150.7,404.32c46.41-8.91,92.88-17.38,139.36-25.87l69.75-12.54,69.78-12.35,34.89-6.15,34.91-6.05,69.82-12.08,139.72-23.73h1.66L849.7,329.28l69.52,12.08L954,347.41l34.74,6.15,69.47,12.35,69.44,12.54c46.27,8.5,92.55,17,138.75,25.88-46.57-6.73-93.06-13.9-139.56-21l-69.71-10.92-69.68-11.11-34.84-5.58L917.76,350l-69.64-11.38-139.2-23.2h1.66L570.78,338.6,500.84,350l-35,5.68-35,5.58-70,11.11-70,10.92C244.17,390.42,197.47,397.59,150.7,404.32Z" transform="translate(20.98 -244.43)"/><path class="cls-2" d="M86.81,709c14.67-2.07,29.34-3.15,44-3.92s29.34-1.07,44-1.08,29.34.33,44,1.07,29.34,1.85,44,3.93c-14.67,2.08-29.34,3.16-44,3.93s-29.34,1.07-44,1.07-29.34-.35-44-1.08S101.48,711.07,86.81,709Z" transform="translate(20.98 -244.43)"/><path class="cls-2" d="M1330.26,709c-15.08,2.07-30.15,3.15-45.23,3.92S1254.88,714,1239.8,714s-30.15-.33-45.23-1.07-30.15-1.85-45.23-3.93c15.08-2.08,30.15-3.16,45.23-3.93s30.15-1.07,45.23-1.07,30.15.35,45.23,1.08S1315.18,706.93,1330.26,709Z" transform="translate(20.98 -244.43)"/><text class="cls-5" x="20.98" y="-244.43"><tspan x="421.14" y="360.97">Red</tspan><tspan class="cls-6"><tspan x="84.13" y="512.04" xml:space="preserve">      </tspan><tspan class="cls-7" x="479.24" y="512.04">Pepper</tspan></tspan><tspan class="cls-8"><tspan x="163.44" y="701.69" xml:space="preserve">  P</tspan><tspan class="cls-9" x="537.38" y="701.69">i</tspan><tspan class="cls-10" x="616.71" y="701.69">zza</tspan></tspan></text></svg>